<svg width="24" height="24" viewBox="0 0 24 24" fill="none" xmlns="http://www.w3.org/2000/svg">
<path d="M16.7619 7.18057C17.0764 6.911 17.5499 6.94743 17.8194 7.26192C18.089 7.57641 18.0526 8.04989 17.7381 8.31945L12.4881 12.8194C12.2072 13.0602 11.7928 13.0602 11.5119 12.8194L6.26192 8.31945C5.94743 8.04989 5.911 7.57641 6.18057 7.26192C6.45014 6.94743 6.92361 6.911 7.2381 7.18057L12 11.2622L16.7619 7.18057ZM16.7619 11.1806C17.0764 10.911 17.5499 10.9474 17.8194 11.2619C18.089 11.5764 18.0526 12.0499 17.7381 12.3194L12.4881 16.8194C12.2072 17.0602 11.7928 17.0602 11.5119 16.8194L6.26192 12.3194C5.94743 12.0499 5.911 11.5764 6.18057 11.2619C6.45014 10.9474 6.92361 10.911 7.2381 11.1806L12 15.2622L16.7619 11.1806Z" fill="white"/>
</svg>
